<svg xmlns="http://www.w3.org/2000/svg" viewBox="0 0 28 20" role="img" aria-label="United States">
  <rect width="28" height="20" rx="1" fill="#fff" />
  <g fill="#B22234">
    <path d="M0 0h28v1.54H0zm0 3.08h28v1.54H0zm0 3.08h28V7.7H0zm0 3.08h28v1.54H0zm0 3.08h28v1.54H0zm0 3.08h28v1.54H0zm0 3.06h28V20H0z" />
  </g>
  <path d="M0 0h12v10.78H0z" fill="#3C3B6E" />
  <g fill="#fff">
    <circle cx="2" cy="2" r=".55" /><circle cx="6" cy="2" r=".55" /><circle cx="10" cy="2" r=".55" />
    <circle cx="4" cy="4.6" r=".55" /><circle cx="8" cy="4.6" r=".55" />
    <circle cx="2" cy="7.2" r=".55" /><circle cx="6" cy="7.2" r=".55" /><circle cx="10" cy="7.2" r=".55" />
  </g>
</svg>
